HIERARCHY
ROOT Hips
{
 OFFSET 0.000000 0.000000 0.000000
 CHANNELS 6 Xposition Yposition Zposition Yrotation Xrotation Zrotation
 JOINT Chest
 {
  OFFSET 0.000000 9.588913 -0.003946
  CHANNELS 3 Yrotation Xrotation Zrotation
  JOINT Chest2
  {
   OFFSET 0.000000 9.541882 0.008053
   CHANNELS 3 Yrotation Xrotation Zrotation
   JOINT Chest3
   {
    OFFSET 0.000000 9.501360 0.000000
    CHANNELS 3 Yrotation Xrotation Zrotation
    JOINT Chest4
    {
     OFFSET 0.000000 9.491660 0.000000
     CHANNELS 3 Yrotation Xrotation Zrotation
     JOINT Neck
     {
      OFFSET 0.000000 14.331917 0.000000
      CHANNELS 3 Yrotation Xrotation Zrotation
      JOINT Head
      {
       OFFSET 0.000000 8.884799 0.017034
       CHANNELS 3 Yrotation Xrotation Zrotation
       End Site
       {
        OFFSET 0.000000 16.896195 0.008993
       }
      }
     }
     JOINT RightCollar
     {
      OFFSET -2.923010 9.499495 0.000000
      CHANNELS 3 Yrotation Xrotation Zrotation
      JOINT RightShoulder
      {
       OFFSET -13.795216 0.000000 0.000000
       CHANNELS 3 Yrotation Xrotation Zrotation
       JOINT RightElbow
       {
        OFFSET -30.272209 0.000000 0.000000
        CHANNELS 3 Yrotation Xrotation Zrotation
        JOINT RightWrist
        {
         OFFSET -24.478199 0.000000 0.000000
         CHANNELS 3 Yrotation Xrotation Zrotation
         End Site
         {
          OFFSET -18.090752 0.000000 0.000000
         }
        }
       }
      }
     }
     JOINT LeftCollar
     {
      OFFSET 2.923010 9.499495 0.000000
      CHANNELS 3 Yrotation Xrotation Zrotation
      JOINT LeftShoulder
      {
       OFFSET 13.795216 0.000000 0.000000
       CHANNELS 3 Yrotation Xrotation Zrotation
       JOINT LeftElbow
       {
        OFFSET 30.272209 0.000000 0.000000
        CHANNELS 3 Yrotation Xrotation Zrotation
        JOINT LeftWrist
        {
         OFFSET 24.478199 0.000000 0.000000
         CHANNELS 3 Yrotation Xrotation Zrotation
         End Site
         {
          OFFSET 18.090752 0.000000 0.000000
         }
        }
       }
      }
     }
    }
   }
  }
 }
 JOINT RightHip
 {
  OFFSET -7.826875 0.019532 0.001973
  CHANNELS 3 Yrotation Xrotation Zrotation
  JOINT RightKnee
  {
   OFFSET 0.000000 -40.546152 -0.001885
   CHANNELS 3 Yrotation Xrotation Zrotation
   JOINT RightAnkle
   {
    OFFSET 0.000000 -39.417092 -0.003189
    CHANNELS 3 Yrotation Xrotation Zrotation
    JOINT RightToe
    {
     OFFSET 0.000000 -7.579396 17.243563
     CHANNELS 3 Yrotation Xrotation Zrotation
     End Site
     {
      OFFSET 0.000000 -1.500329 6.694466
     }
    }
   }
  }
 }
 JOINT LeftHip
 {
  OFFSET 7.826875 0.019532 0.001973
  CHANNELS 3 Yrotation Xrotation Zrotation
  JOINT LeftKnee
  {
   OFFSET 0.000000 -40.546152 -0.001885
   CHANNELS 3 Yrotation Xrotation Zrotation
   JOINT LeftAnkle
   {
    OFFSET 0.000000 -39.417092 -0.003189
    CHANNELS 3 Yrotation Xrotation Zrotation
    JOINT LeftToe
    {
     OFFSET 0.000000 -7.579396 17.243563
     CHANNELS 3 Yrotation Xrotation Zrotation
     End Site
     {
      OFFSET 0.000000 -1.500329 6.694466
     }
    }
   }
  }
 }
}
MOTION
Frames: 6
Frame Time: 0.008333
-11.547571 49.312919 -22.631656 52.287090 -41.167164 -4.570094 0.496623 13.829961 2.793303 0.320246 7.919734 1.329316 0.430396 9.898325 1.672675 0.320246 7.919734 1.329316 0.038294 13.477989 -1.885520 0.464840 -11.554440 -1.969349 -4.750240 0.570386 -2.513654 -7.089121 -12.568169 84.744240 59.031738 14.348597 17.863615 -3.418475 -0.350426 -16.283473 -4.589769 -1.735706 -0.385123 5.231010 -13.831754 -85.336378 -46.225993 8.626949 -28.447869 -4.624863 3.356904 28.067257 -1.698375 -43.357880 -11.986577 -162.580860 76.371249 -159.909361 -6.931115 -16.328867 4.109689 -0.174232 0.571920 -0.074638 8.957334 -48.306340 2.298777 140.747990 70.447262 154.846860 0.658512 -16.763435 -3.721705 -0.067536 -0.657896 -0.020974
-11.547359 49.313078 -22.631474 52.282016 -41.162110 -4.571056 0.498214 13.827454 2.795043 0.321823 7.919455 1.329692 0.432380 9.897971 1.673180 0.321823 7.919455 1.329692 0.044982 13.494430 -1.888727 0.472530 -11.537546 -1.974267 -4.753953 0.563063 -2.516945 -7.082896 -12.559772 84.746170 59.033451 14.350256 17.863357 -3.421704 -0.352936 -16.292610 -4.584964 -1.738233 -0.383828 5.228410 -13.834071 -85.335812 -46.223820 8.622741 -28.447133 -4.625275 3.363796 28.067724 -1.701522 -43.363657 -11.982668 -162.589579 76.370964 -159.916210 -6.934617 -16.329193 4.104394 -0.172667 0.571832 -0.072751 8.952903 -48.314192 2.306617 140.756989 70.447762 154.853246 0.662889 -16.756806 -3.720576 -0.068893 -0.662626 -0.024306
-11.547504 49.313116 -22.631244 52.277425 -41.156685 -4.572632 0.501741 13.825430 2.797562 0.323302 7.919044 1.330031 0.434238 9.897451 1.673637 0.323302 7.919044 1.330031 0.052436 13.510290 -1.891678 0.480961 -11.521242 -1.979094 -4.756991 0.555199 -2.518699 -7.077543 -12.551327 84.745094 59.034609 14.349959 17.864150 -3.422438 -0.354663 -16.300332 -4.583037 -1.741185 -0.386349 5.222242 -13.837530 -85.328847 -46.225304 8.618381 -28.445539 -4.622787 3.370082 28.067275 -1.703417 -43.369905 -11.978336 -162.597599 76.370507 -159.923591 -6.935547 -16.328338 4.101326 -0.172028 0.570832 -0.071637 8.950094 -48.321648 2.315169 140.765406 70.449566 154.861547 0.662300 -16.753966 -3.720473 -0.066749 -0.664138 -0.025558
-11.547728 49.313215 -22.630998 52.277415 -41.152023 -4.576624 0.504466 13.825670 2.800436 0.324322 7.918760 1.330724 0.435532 9.897091 1.674527 0.324322 7.918760 1.330724 0.061770 13.525964 -1.895352 0.491515 -11.505106 -1.985115 -4.757077 0.545856 -2.520941 -7.075581 -12.543169 84.742937 59.037309 14.348581 17.870936 -3.422626 -0.354442 -16.311847 -4.585335 -1.744891 -0.393680 5.217756 -13.839173 -85.317258 -46.232340 8.616907 -28.445069 -4.619835 3.373447 28.064602 -1.705196 -43.374170 -11.977163 -162.608829 76.369386 -159.933087 -6.933881 -16.328511 4.100692 -0.173279 0.569495 -0.072316 8.945816 -48.328008 2.322997 140.768930 70.451159 154.866798 0.657074 -16.752820 -3.721098 -0.062106 -0.664125 -0.025325
-11.548314 49.313290 -22.630601 52.277693 -41.147265 -4.582314 0.505829 13.827276 2.803702 0.325651 7.919098 1.332173 0.437229 9.897507 1.676372 0.325651 7.919098 1.332173 0.073678 13.541721 -1.899658 0.504895 -11.488858 -1.992397 -4.757316 0.532997 -2.523949 -7.073927 -12.534565 84.739663 59.044847 14.346779 17.882520 -3.425767 -0.352618 -16.324999 -4.589589 -1.748703 -0.401142 5.219012 -13.838679 -85.306144 -46.245269 8.617297 -28.449645 -4.615332 3.373467 28.061159 -1.708238 -43.377686 -11.974072 -162.616764 76.368573 -159.938738 -6.931170 -16.329937 4.101058 -0.175879 0.569254 -0.074075 8.939582 -48.335351 2.333441 140.766945 70.451781 154.866324 0.650660 -16.750932 -3.720629 -0.058171 -0.664621 -0.025418
-11.548956 49.313397 -22.630260 52.272516 -41.143559 -4.584272 0.506892 13.828935 2.804945 0.328205 7.920374 1.333850 0.440471 9.899090 1.678533 0.328205 7.920374 1.333850 0.087504 13.558316 -1.903671 0.520207 -11.471741 -1.999814 -4.761214 0.519872 -2.526897 -7.070358 -12.526735 84.733763 59.057713 14.341808 17.897456 -3.431618 -0.351053 -16.334436 -4.593988 -1.751790 -0.404772 5.225836 -13.836485 -85.298682 -46.261948 8.616317 -28.460288 -4.609130 3.369043 28.060176 -1.709289 -43.380502 -11.969439 -162.617616 76.368143 -159.938543 -6.928552 -16.332889 4.101762 -0.177977 0.570884 -0.076153 8.938543 -48.340933 2.343040 140.759678 70.453541 154.860428 0.645944 -16.748547 -3.719324 -0.056211 -0.665041 -0.025929
